<svg xmlns="http://www.w3.org/2000/svg" xmlns:xlink="http://www.w3.org/1999/xlink" width="177" height="38" viewBox="0 0 177 38">
    <defs>
        <path id="a" d="M.015.08h15.923v15.181H.015z"/>
        <path id="c" d="M.202.107H8.99v8.238H.202z"/>
        <path id="e" d="M.09.03h12.274v11.608H.09z"/>
        <path id="g" d="M.083.107H8.87v8.238H.083z"/>
    </defs>
    <g fill="none" fill-rule="evenodd">
        <path fill="#202322" d="M83.717 19.914h3.208V6.195h-3.208zM125.218 19.914h3.208V6.195h-3.208zM25.544 6.279h3.223v13.719h-3.223V18.56c-1.322 1.22-2.744 1.831-4.265 1.831-1.92 0-3.508-.685-4.763-2.056-1.246-1.398-1.869-3.146-1.869-5.24 0-2.056.623-3.77 1.869-5.141 1.245-1.371 2.804-2.056 4.678-2.056 1.616 0 3.066.657 4.35 1.971V6.28zm-7.616 6.817c0 1.315.357 2.385 1.069 3.211.732.837 1.655 1.254 2.767 1.254 1.188 0 2.148-.403 2.88-1.21.733-.837 1.1-1.898 1.1-3.184 0-1.286-.367-2.348-1.1-3.184-.732-.817-1.682-1.225-2.852-1.225-1.103 0-2.024.413-2.766 1.239-.732.837-1.098 1.87-1.098 3.1zM31.194 6.279h3.209v1.225c.59-.61 1.113-1.028 1.57-1.253.465-.235 1.016-.352 1.653-.352.846 0 1.73.272 2.654.817l-1.47 2.901c-.608-.431-1.203-.648-1.783-.648-1.75 0-2.624 1.305-2.624 3.917v7.112h-3.209V6.278M42.024 6.279h3.223v1.268c1.122-1.099 2.387-1.648 3.793-1.648 1.617 0 2.877.502 3.78 1.507.78.854 1.17 2.25 1.17 4.183v8.409h-3.224v-7.662c0-1.353-.19-2.287-.57-2.803-.37-.526-1.046-.79-2.026-.79-1.065 0-1.82.349-2.267 1.044-.437.685-.656 1.882-.656 3.59v6.62h-3.223V6.28M71.034 25.648h-3.208V6.278h3.208v1.494c1.265-1.248 2.7-1.873 4.308-1.873 1.91 0 3.484.695 4.72 2.085 1.255 1.38 1.882 3.121 1.882 5.225 0 2.057-.622 3.77-1.868 5.142-1.236 1.36-2.795 2.042-4.677 2.042-1.626 0-3.081-.644-4.365-1.93v7.185zm7.631-12.426c0-1.314-.362-2.384-1.085-3.21-.731-.836-1.654-1.255-2.766-1.255-1.18 0-2.134.405-2.867 1.213-.732.807-1.098 1.868-1.098 3.183 0 1.286.366 2.347 1.098 3.183.723.817 1.673 1.225 2.852 1.225 1.113 0 2.03-.413 2.753-1.24.742-.825 1.113-1.86 1.113-3.099zM83.231 2.123c0-.554.204-1.033.613-1.437A2.015 2.015 0 0 1 85.313.08c.58 0 1.075.202 1.483.606.41.395.613.878.613 1.45 0 .574-.203 1.062-.613 1.465a1.982 1.982 0 0 1-1.469.606c-.58 0-1.074-.201-1.483-.606a1.994 1.994 0 0 1-.613-1.478M90.082 6.279h3.208v1.225c.59-.61 1.113-1.028 1.57-1.253.465-.235 1.016-.352 1.653-.352.846 0 1.73.272 2.653.817l-1.469 2.901c-.608-.431-1.203-.648-1.783-.648-1.75 0-2.624 1.305-2.624 3.917v7.112h-3.208V6.278M109.944 6.279h3.223v13.719h-3.223V18.56c-1.322 1.22-2.744 1.831-4.265 1.831-1.92 0-3.508-.685-4.763-2.056-1.246-1.398-1.87-3.146-1.87-5.24 0-2.056.624-3.77 1.87-5.141 1.245-1.371 2.804-2.056 4.678-2.056 1.616 0 3.066.657 4.35 1.971V6.28zm-7.616 6.817c0 1.315.356 2.385 1.069 3.211.732.837 1.655 1.254 2.767 1.254 1.188 0 2.148-.403 2.88-1.21.733-.837 1.099-1.898 1.099-3.184 0-1.286-.366-2.348-1.098-3.184-.733-.817-1.683-1.225-2.852-1.225-1.103 0-2.025.413-2.767 1.239-.733.837-1.098 1.87-1.098 3.1zM120.434 9.237v10.761h-3.208V9.237h-1.661V6.279h1.66V1.25h3.21v5.028h2.495v2.958h-2.496M130.414 13.04c0-1.981.718-3.666 2.153-5.057 1.436-1.39 3.185-2.084 5.249-2.084 2.072 0 3.831.699 5.277 2.099 1.426 1.398 2.14 3.117 2.14 5.155 0 2.056-.72 3.78-2.154 5.169-1.446 1.38-3.22 2.07-5.32 2.07-2.082 0-3.827-.704-5.234-2.112-1.408-1.39-2.111-3.136-2.111-5.24m3.28.056c0 1.371.371 2.456 1.113 3.254.76.808 1.763 1.211 3.009 1.211 1.255 0 2.258-.399 3.009-1.197.751-.798 1.127-1.864 1.127-3.197s-.376-2.4-1.127-3.198c-.76-.807-1.764-1.211-3.01-1.211-1.226 0-2.22.404-2.98 1.211-.76.808-1.141 1.85-1.141 3.127M146.697 6.279h3.223v1.268c1.121-1.099 2.387-1.648 3.793-1.648 1.617 0 2.877.502 3.78 1.507.78.854 1.17 2.25 1.17 4.183v8.409h-3.224v-7.662c0-1.353-.19-2.287-.57-2.803-.37-.526-1.046-.79-2.026-.79-1.065 0-1.82.349-2.266 1.044-.438.685-.657 1.882-.657 3.59v6.62h-3.223V6.28M61.974 11.99l-.145-.053c-1.89-.69-2.727-1.036-2.727-2.004 0-.797.843-1.42 1.917-1.42 1.602 0 2.708 1.435 2.719 1.45l.149.196 1.969-1.895-.112-.148c-.07-.091-1.735-2.244-4.725-2.244-2.996 0-4.787 2.065-4.787 4.061 0 2.64 2.414 3.8 4.516 4.516 1.637.557 2.408.93 2.408 1.92 0 1.005-1.194 1.362-2.216 1.362-1.96 0-3.113-1.916-3.124-1.935l-.13-.22-2.133 1.755.09.153c.068.118 1.719 2.887 5.297 2.887 2.532 0 5.086-1.237 5.086-4.002 0-2.679-2.002-3.632-4.052-4.38M166.695 11.99l-.146-.053c-1.89-.69-2.726-1.036-2.726-2.004 0-.797.842-1.42 1.917-1.42 1.601 0 2.707 1.435 2.718 1.45l.149.196 1.97-1.895-.112-.148c-.07-.091-1.736-2.244-4.725-2.244-2.997 0-4.787 2.065-4.787 4.061 0 2.64 2.413 3.8 4.515 4.516 1.638.557 2.409.93 2.409 1.92 0 1.005-1.194 1.362-2.217 1.362-1.96 0-3.112-1.916-3.123-1.935l-.13-.22-2.134 1.755.09.153c.068.118 1.72 2.887 5.297 2.887 2.532 0 5.087-1.237 5.087-4.002 0-2.679-2.002-3.632-4.052-4.38M124.732 2.123c0-.554.204-1.033.614-1.437a2.015 2.015 0 0 1 1.468-.606c.58 0 1.075.202 1.483.606.41.395.613.878.613 1.45 0 .574-.203 1.062-.613 1.465-.399.405-.888.606-1.468.606s-1.075-.201-1.483-.606a1.995 1.995 0 0 1-.614-1.478"/>
        <g>
            <mask id="b" fill="#fff">
                <use xlink:href="#a"/>
            </mask>
            <path fill="#202322" d="M5.451 14.695a3.464 3.464 0 0 1 .007-4.196l7.077-9.197.504-.59A1.612 1.612 0 0 1 14.328.08c.361 0 .702.118.987.34.34.264.557.646.61 1.076.054.43-.062.854-.327 1.193l-.366.42-.244.338L5.881 15.26l-.43-.566M.339 2.69a1.6 1.6 0 0 1-.326-1.194A1.605 1.605 0 0 1 1.61.08a1.602 1.602 0 0 1 1.282.623l3.893 5.114-2.036 2.654-4.41-5.782" mask="url(#b)"/>
        </g>
        <path fill="#202322" d="M8.441 25.648a4.06 4.06 0 0 1-4.056-4.056c0-.899.292-1.752.843-2.47l.146-.189-.005-.003 5.736-7.528.426.56a3.418 3.418 0 0 1-.007 4.138l-3.887 5.08.013.01a.852.852 0 0 0-.1.402c0 .49.4.89.891.89a.85.85 0 0 0 .573-.221l.012.009.142-.164 2.392-3.096a4.03 4.03 0 0 1 .938 2.582 4.06 4.06 0 0 1-4.057 4.056"/>
        <g transform="translate(68.147 29.64)">
            <mask id="d" fill="#fff">
                <use xlink:href="#c"/>
            </mask>
            <path fill="#5C5C59" d="M.225 4.222c.047-.07.128-.233.163-.29.058-.093.186-.117.314-.035 0 0 .5.406 1.093.406.476 0 .755-.244.755-.558 0-.407-.349-.592-1.023-.93C.911 2.513.202 2.106.202 1.316.202.828.597.107 1.678.107c.605 0 1.07.21 1.29.36.105.07.14.233.07.36l-.093.187a.255.255 0 0 1-.337.104s-.5-.278-.93-.278c-.523 0-.662.267-.662.464 0 .384.383.559.86.79.802.384 1.523.745 1.523 1.582 0 .674-.651 1.313-1.604 1.313a2.357 2.357 0 0 1-1.511-.523.23.23 0 0 1-.059-.244M6.652 4.21c.895 0 1.523-.732 1.523-1.662C8.175 1.642 7.64.84 6.71.84c-.755 0-1.185.569-1.185.569v2.395s.488.406 1.127.406zM5.513 8.14c0 .115-.105.22-.22.22h-.361a.229.229 0 0 1-.221-.22V.443c0-.116.105-.22.22-.22h.245c.104 0 .14.034.186.15l.081.221S5.955.107 6.792.107c1.267 0 2.197 1.116 2.197 2.453 0 1.36-.954 2.43-2.232 2.43-.767 0-1.244-.384-1.244-.384v3.533z" mask="url(#d)"/>
        </g>
        <path fill="#5C5C59" d="M79.75 33.932c.582 0 1.082-.36 1.28-.651v-.918c-.14-.082-.466-.186-.977-.186-.651 0-1.116.325-1.116.93 0 .464.314.825.814.825zm.303-2.371c.5 0 .988.15.988.15.011-.86-.093-1.255-.756-1.255-.639 0-1.185.175-1.395.256-.116.046-.186-.012-.22-.116l-.094-.291c-.046-.14.024-.209.128-.256.07-.034.744-.302 1.616-.302 1.186 0 1.476.605 1.476 1.965v2.58a.229.229 0 0 1-.22.221h-.221c-.128 0-.163-.07-.198-.174l-.093-.314c-.244.244-.72.604-1.441.604-.814 0-1.43-.593-1.43-1.522 0-.884.663-1.546 1.86-1.546zM83.473 30.084c0-.116.104-.22.22-.22h.221c.093 0 .175.058.198.162l.093.337s.43-.616 1.395-.616c.348 0 .93.058.813.384l-.14.395c-.057.151-.162.151-.278.105a1.202 1.202 0 0 0-.453-.093c-.884 0-1.267.65-1.267.65v3.104a.229.229 0 0 1-.221.221h-.36a.229.229 0 0 1-.221-.221v-4.208"/>
        <g transform="translate(87.4 26.347)">
            <mask id="f" fill="#fff">
                <use xlink:href="#e"/>
            </mask>
            <path fill="#5C5C59" d="M.09.25C.09.134.195.03.31.03h.36c.117 0 .222.104.222.22v5.034l1.976-1.628c.093-.081.186-.14.279-.14h.627c.198 0 .187.221.105.291L1.67 5.574l2.57 2.302c.093.08.08.29-.117.29h-.64a.39.39 0 0 1-.231-.093L.892 5.83v2.115a.23.23 0 0 1-.221.221H.31a.23.23 0 0 1-.221-.22V.25M7.75 3.772c-.047-.15.035-.255.197-.255h.407c.07 0 .14.046.163.128l1.034 3.603h.012l1.976-3.603a.237.237 0 0 1 .198-.128h.453c.151 0 .22.116.14.267l-4.301 7.73c-.035.07-.116.14-.198.14h-.488c-.151 0-.21-.094-.116-.257l1.825-3.242L7.75 3.772" mask="url(#f)"/>
        </g>
        <path fill="#5C5C59" d="M103.56 31.92c0-.766-.44-1.394-1.08-1.394-.814 0-1.57.86-1.57 1.918 0 .79.442 1.453 1.093 1.453.814 0 1.558-.907 1.558-1.976zm-.999-2.173c.988 0 1.802.965 1.802 2.104 0 1.5-1.081 2.778-2.441 2.778-.988 0-1.802-.965-1.802-2.115 0-1.488 1.081-2.767 2.441-2.767zM105.579 32.525l.337-2.44c.023-.117.128-.222.232-.222h.419c.104 0 .186.105.174.221l-.349 2.453c-.128.883.163 1.36.733 1.36.732 0 1.255-.71 1.266-.71l.442-3.103c.012-.116.117-.22.233-.22h.395c.105 0 .186.104.174.22l-.592 4.208c-.012.116-.105.221-.233.221h-.232c-.105 0-.128-.081-.152-.198l-.046-.302c-.035.023-.593.616-1.453.616-1.162 0-1.523-.872-1.348-2.104M111.289 30.084c.011-.116.092-.22.232-.22h.232c.082 0 .14.058.151.162l.047.337c.023 0 .5-.616 1.337-.616.337 0 .86.058.686.384l-.198.383c-.082.151-.163.151-.267.105a1.065 1.065 0 0 0-.454-.093c-.65 0-1.093.663-1.116.663l-.43 3.103c-.023.116-.14.221-.256.221h-.383c-.105 0-.186-.105-.163-.221l.582-4.208M117.763 30.084c0-.116.104-.22.22-.22h.36c.117 0 .222.104.222.22v4.208a.23.23 0 0 1-.221.221h-.36a.229.229 0 0 1-.221-.221v-4.208zm-.163-2.917c0-.314.244-.558.546-.558.314 0 .558.244.558.558a.549.549 0 0 1-.558.546.546.546 0 0 1-.546-.546zM120.256 30.084c0-.116.104-.22.22-.22h.222c.105 0 .162.046.186.139l.104.36s.663-.616 1.628-.616c1.348 0 1.801.884 1.801 2.092v2.453a.229.229 0 0 1-.22.221h-.372a.229.229 0 0 1-.221-.221v-2.453c0-.883-.396-1.313-1.047-1.313-.871 0-1.5.663-1.5.663v3.103a.229.229 0 0 1-.22.221h-.36a.229.229 0 0 1-.221-.221v-4.208"/>
        <g transform="translate(125.653 29.64)">
            <mask id="h" fill="#fff">
                <use xlink:href="#g"/>
            </mask>
            <path fill="#5C5C59" d="M.106 4.222c.047-.07.129-.233.163-.29.058-.093.186-.117.314-.035 0 0 .5.406 1.093.406.476 0 .755-.244.755-.558 0-.407-.348-.592-1.022-.93C.792 2.513.083 2.106.083 1.316.083.828.48.107 1.56.107c.604 0 1.069.21 1.29.36.104.07.14.233.07.36l-.094.187a.256.256 0 0 1-.337.104S1.99.84 1.56.84c-.522 0-.662.267-.662.464 0 .384.384.559.86.79.802.384 1.523.745 1.523 1.582 0 .674-.651 1.313-1.604 1.313a2.359 2.359 0 0 1-1.512-.523.232.232 0 0 1-.058-.244M6.533 4.21c.895 0 1.523-.732 1.523-1.662 0-.906-.535-1.708-1.465-1.708-.755 0-1.185.569-1.185.569v2.395s.488.406 1.127.406zM5.394 8.14c0 .115-.104.22-.22.22h-.361a.229.229 0 0 1-.221-.22V.443c0-.116.105-.22.22-.22h.245c.105 0 .14.034.186.15l.082.221s.51-.488 1.348-.488C7.94.107 8.87 1.223 8.87 2.56c0 1.36-.954 2.43-2.232 2.43-.767 0-1.244-.384-1.244-.384v3.533z" mask="url(#h)"/>
        </g>
        <path fill="#5C5C59" d="M135.908 30.084c0-.116.105-.22.221-.22h.36c.117 0 .221.104.221.22v4.208a.229.229 0 0 1-.22.221h-.36a.23.23 0 0 1-.222-.221v-4.208zm-.162-2.917c0-.314.244-.558.546-.558.314 0 .558.244.558.558a.548.548 0 0 1-.558.546.546.546 0 0 1-.546-.546zM138.402 30.084c0-.116.104-.22.22-.22h.221c.094 0 .175.058.198.162l.093.337s.43-.616 1.395-.616c.349 0 .93.058.814.384l-.14.395c-.058.151-.163.151-.279.105a1.201 1.201 0 0 0-.453-.093c-.884 0-1.267.65-1.267.65v3.104a.229.229 0 0 1-.221.221h-.36a.229.229 0 0 1-.221-.221v-4.208M143.616 33.932c.582 0 1.081-.36 1.279-.651v-.918c-.14-.082-.465-.186-.976-.186-.651 0-1.117.325-1.117.93 0 .464.315.825.814.825zm.303-2.371c.5 0 .988.15.988.15.011-.86-.094-1.255-.756-1.255-.64 0-1.186.175-1.395.256-.116.046-.186-.012-.22-.116l-.094-.291c-.046-.14.024-.209.128-.256.07-.034.744-.302 1.616-.302 1.186 0 1.476.605 1.476 1.965v2.58a.229.229 0 0 1-.22.221h-.222c-.128 0-.162-.07-.197-.174l-.093-.314c-.244.244-.721.604-1.442.604-.813 0-1.43-.593-1.43-1.522 0-.884.663-1.546 1.86-1.546zM147.552 30.56h-.593a.22.22 0 0 1-.22-.22v-.256c0-.128.092-.22.22-.22h.593v-1.291c0-.116.105-.22.22-.22l.373-.024c.116 0 .209.105.209.22v1.314h1.349c.127 0 .22.093.22.221v.256a.22.22 0 0 1-.22.22h-1.349v2.72c0 .466.117.558.384.558.29 0 .697-.174.848-.255.175-.093.221-.023.28.07l.174.29c.081.14.046.21-.082.29-.162.106-.79.396-1.336.396-.93 0-1.07-.558-1.07-1.278v-2.79M151.24 30.084c0-.116.104-.22.22-.22h.36c.117 0 .221.104.221.22v4.208a.229.229 0 0 1-.22.221h-.36a.229.229 0 0 1-.222-.221v-4.208zm-.163-2.917c0-.314.244-.558.546-.558.314 0 .558.244.558.558a.548.548 0 0 1-.558.546.546.546 0 0 1-.546-.546zM155.716 33.874c.848 0 1.51-.756 1.51-1.697 0-.919-.662-1.663-1.51-1.663-.849 0-1.511.744-1.511 1.663 0 .941.662 1.697 1.51 1.697zm0-4.127c1.29 0 2.313 1.116 2.313 2.43 0 1.336-1.023 2.452-2.313 2.452-1.29 0-2.314-1.116-2.314-2.452 0-1.314 1.023-2.43 2.314-2.43zM159.435 30.084c0-.116.105-.22.221-.22h.22c.106 0 .164.046.187.139l.104.36s.663-.616 1.628-.616c1.348 0 1.801.884 1.801 2.092v2.453a.229.229 0 0 1-.22.221h-.372a.229.229 0 0 1-.221-.221v-2.453c0-.883-.395-1.313-1.046-1.313-.872 0-1.5.663-1.5.663v3.103a.229.229 0 0 1-.22.221h-.36a.229.229 0 0 1-.222-.221v-4.208M165.647 31.165l-.22-3.243v-1.325c0-.116.104-.22.22-.22h.581c.116 0 .22.104.22.22v1.302l-.22 3.266c-.011.093-.116.186-.22.186h-.14c-.105 0-.21-.093-.221-.186zm.29 2.139c.373 0 .663.29.663.662 0 .36-.29.663-.662.663a.67.67 0 0 1-.663-.663c0-.371.302-.662.663-.662z"/>
        <g fill="#202322">
            <path d="M172.724 4.104h-.561a.07.07 0 0 1-.07-.07v-.3c0-.038.03-.07.07-.07h1.603c.04 0 .07.032.07.07v.3a.07.07 0 0 1-.07.07h-.561v2.058c0 .037-.033.07-.07.07h-.34a.072.072 0 0 1-.07-.07V4.104M174.443 3.682c.004-.03.026-.055.066-.055h.059c.029 0 .05.014.062.036l.807 1.732h.011l.807-1.732c.011-.022.03-.036.062-.036h.06c.04 0 .062.026.066.055l.432 2.465c.012.052-.018.085-.066.085h-.333c-.033 0-.063-.03-.07-.055l-.217-1.39h-.01l-.643 1.441c-.007.022-.029.04-.062.04h-.066c-.033 0-.051-.018-.063-.04l-.65-1.442h-.01l-.213 1.39a.072.072 0 0 1-.066.056h-.33c-.048 0-.077-.033-.07-.085l.437-2.465"/>
        </g>
    </g>
</svg>
